<?xml version="1.0" encoding="UTF-8"?>
<svg id="Layer_1" data-name="Layer 1" xmlns="http://www.w3.org/2000/svg" viewBox="0 0 203.72 180.62">
  <defs>
    <style>
      .cls-1 {
        letter-spacing: 0em;
      }

      .cls-2 {
        fill: #fbb03b;
      }

      .cls-2, .cls-3 {
        stroke: #fff;
        stroke-miterlimit: 10;
      }

      .cls-4 {
        letter-spacing: 0em;
      }

      .cls-4, .cls-5 {
        fill: #f7931e;
      }

      .cls-6 {
        letter-spacing: -.01em;
      }

      .cls-7 {
        letter-spacing: .02em;
      }

      .cls-8 {
        letter-spacing: 0em;
      }

      .cls-9 {
        letter-spacing: -.03em;
      }

      .cls-3 {
        fill: #fff;
      }

      .cls-10 {
        letter-spacing: .02em;
      }

      .cls-11 {
        font-family: DupincelRoman-MBook, 'Dupincel VF';
        font-size: 22.22px;
        font-variation-settings: 'wght' 500, 'opsz' 24;
      }

      .cls-5 {
        letter-spacing: -.02em;
      }

      .cls-12 {
        letter-spacing: -.04em;
      }

      .cls-13 {
        letter-spacing: 0em;
      }

      .cls-14 {
        letter-spacing: 0em;
      }
    </style>
  </defs>
  <text class="cls-11" transform="translate(.33 172.8) rotate(-.99)"><tspan class="cls-5" x="0" y="0">B</tspan><tspan class="cls-14" x="14.09" y="0">H</tspan><tspan class="cls-7" x="32.26" y="0">U</tspan><tspan class="cls-8" x="48.08" y="0">V</tspan><tspan x="63.33" y="0">N</tspan><tspan class="cls-6" x="80.79" y="0">I</tspan><tspan class="cls-13" x="88.9" y="0">S</tspan><tspan x="101.01" y="0">H </tspan><tspan class="cls-4" x="123.54" y="0">A</tspan><tspan class="cls-12" x="139.25" y="0">R</tspan><tspan class="cls-9" x="153.85" y="0">O</tspan><tspan class="cls-10" x="171.69" y="0">R</tspan><tspan class="cls-1" x="187.51" y="0">A</tspan></text>
  <path class="cls-2" d="m88.79.68c23.97,6.05,39.03,25.04,37.37,41.72-2.22,22.3-33.8,35.39-52.97,33.69-2.22-.2-7.75-.9-7.8-.62-.11.6,37.7-1.77,51.34,17.62,7.91,11.24,7.29,29.07-.83,39.97-11.59,15.57-35.56,13.63-49.82,12.46-10.43-.86-18.81-3.34-24.32-5.34"/>
  <polygon class="cls-2" points="40.29 139.88 42.41 140.55 91.07 1.29 88.94 .62 40.29 139.88"/>
  <path class="cls-3" d="m45.33,133.06c3.39.98,8.31,2.2,14.33,2.99,11.95,1.57,43.58,5.96,53.75-11.21,6.42-10.83,4.47-25.6-3.16-34.88-12.44-15.12-41.73-13.63-41.63-14.2.04-.23,4.53.34,6.32.5,14.72,1.3,39.84-8.05,42.95-27.15,2.47-15.2-9.53-33.3-29.85-38.82-.99,2.77-1.98,5.54-2.97,8.3,2.67.51,6.6,1.59,10.68,4.15,9.65,6.06,17.76,18.97,15.11,31.33-3.52,16.39-24.98,24.1-37.89,23.01-1.58-.13-5.54-.62-5.58-.42-.09.49,25.75-.78,36.73,12.03,6.73,7.86,8.45,20.37,2.79,29.55-9.94,16.12-40.03,10.96-46.55,9.67-.41-.08-.87-.18-.87-.18-4.51-.93-8.27-2.02-11.18-2.97"/>
  <path class="cls-3" d="m82.7,25.71c14.99,4.06,23.96,17.55,22.17,29.22-2.27,14.73-21,21.99-31.93,20.99-1.34-.12-4.67-.56-4.7-.39-.07.44,21.7-.72,30.95,10.98,5.82,7.36,7.53,19.67,2.35,26.96-8.46,11.91-31.63,7.49-39.59,5.95-4.49-.87-8.15-2.04-10.68-2.97"/>
</svg>